<?xml version="1.0" standalone="no"?><!DOCTYPE svg PUBLIC "-//W3C//DTD SVG 1.1//EN" "http://www.w3.org/Graphics/SVG/1.1/DTD/svg11.dtd"><svg t="1631266420043" class="icon" viewBox="0 0 1277 1024" version="1.1" xmlns="http://www.w3.org/2000/svg" p-id="5264" xmlns:xlink="http://www.w3.org/1999/xlink" width="249.4140625" height="200"><defs><style type="text/css"></style></defs><path d="M461.6792552 764.76516591h296.93511148A57.90234684 57.90234684 0 0 1 816.41066568 822.7735606v2.65120629a66.28015864 66.28015864 0 0 1-66.28015941 66.28015862H469.95101915a66.28015864 66.28015864 0 0 1-66.28015942-66.28015862v-2.65120629a57.90234684 57.90234684 0 0 1 57.90234685-57.90234684z" fill="#FFFFFF" p-id="5265"></path><path d="M750.34260274 907.50611537H469.95101915a82.29344496 82.29344496 0 0 1-82.1873971-82.18739633v-2.54515844a74.23377826 74.23377826 0 0 1 74.23377747-74.23377825h296.93511226a74.23377826 74.23377826 0 0 1 74.23377749 74.23377825v2.54515844a82.29344496 82.29344496 0 0 1-82.82368653 82.18739633z m-288.76939617-127.2579047a42.41930131 42.41930131 0 0 0-42.4193013 42.41930131v2.54515844a50.37292093 50.37292093 0 0 0 50.37292017 50.37292093h280.8157773a50.37292093 50.37292093 0 0 0 50.37292093-50.37292093v-2.43910982a42.41930131 42.41930131 0 0 0-42.41930131-42.41930131z" fill="#052D22" p-id="5266"></path><path d="M132.82361892 292.63833783h954.43428757v108.38131562a397.57490472 397.57490472 0 0 1-397.2567604 397.46885689H572.49968064A439.99420681 439.99420681 0 0 1 132.82361892 358.60035214v-65.96201431z" fill="#FFFFFF" p-id="5267"></path><path d="M209.70860269 292.63833783h880.20051008v108.38131562a397.57490472 397.57490472 0 0 1-397.46885687 397.46885689h-42.41930131A439.99420681 439.99420681 0 0 1 209.70860269 358.60035214v-65.96201431z" fill="#24C6A7" p-id="5268"></path><path d="M690.00114609 814.3957488H572.49968064a456.00749314 456.00749314 0 0 1-456.00749314-456.00749313v-81.65715631h986.24876452v124.28855409a413.58819183 413.58819183 0 0 1-412.73980593 413.37609535zM148.30666368 308.54557553v50.05477661a424.19301696 424.19301696 0 0 0 424.19301696 424.19301696h117.50146545a381.77371488 381.77371488 0 0 0 381.77371565-381.77371565v-92.47407792z" fill="#052D22" p-id="5269"></path><path d="M174.81872728 132.39942597h870.23197439a42.41930131 42.41930131 0 0 1 42.4193013 42.41930132v117.28936898H132.39942597V174.81872728a42.41930131 42.41930131 0 0 1 42.41930132-42.4193013z" fill="#FFFFFF" p-id="5270"></path><path d="M251.70371183 132.39942597h804.26996006a42.41930131 42.41930131 0 0 1 42.41930131 42.41930132v117.28936898H209.28440974V174.81872728a42.41930131 42.41930131 0 0 1 42.41930209-42.4193013z" fill="#FDB2AF" p-id="5271"></path><path d="M1103.37724144 308.01533474H116.4921875V174.81872728A58.4325884 58.4325884 0 0 1 174.81872728 116.4921875h870.23197439a58.4325884 58.4325884 0 0 1 58.32653977 58.32653978zM148.30666368 276.20085856h923.25610159V174.81872728a26.51206361 26.51206361 0 0 0-26.5120636-26.5120636H174.81872728A26.51206361 26.51206361 0 0 0 148.30666368 174.81872728z" fill="#052D22" p-id="5272"></path><path d="M690.10719471 486.17640193H689.15276021c-5.62055766 0-11.24111533 0-16.75562438-0.84838589a15.90723847 15.90723847 0 0 1 3.28749648-31.81447693 115.69864507 115.69864507 0 0 0 13.68022436 0.74233803h1.16653098c4.5600753 0 9.22619845 0 13.78627299-0.63628941a15.90723847 15.90723847 0 1 1 2.96935138 31.81447617c-5.93870198 0.53024156-11.55925964 0.74233805-17.17981731 0.74233803zM783.74780284 455.84660107a15.90723847 15.90723847 0 0 1-9.75643926-28.84512557 140.5139369 140.5139369 0 0 0 21.20965105-19.08868555 15.90723847 15.90723847 0 0 1 23.54271224 21.20965104 181.55461152 181.55461152 0 0 1-26.08787067 23.33061576 15.16490044 15.16490044 0 0 1-8.90805336 3.39354432z m-188.23565077-0.63628942a16.22538279 16.22538279 0 0 1-9.43829493-3.07539923 170.6316413 170.6316413 0 0 1-25.87577419-23.542713 15.90723847 15.90723847 0 1 1 23.54271301-21.20965027 145.18006004 145.18006004 0 0 0 21.20965026 19.1947334 15.90723847 15.90723847 0 0 1-9.43829415 28.73907695z m250.27387997-95.4434293a16.43747927 16.43747927 0 0 1-3.28749647 0 15.90723847 15.90723847 0 0 1-12.30159691-18.87658907 140.5139369 140.5139369 0 0 0 2.96935061-28.42093186 15.90723847 15.90723847 0 0 1 31.81447617 0 165.32922795 165.32922795 0 0 1-3.71168865 34.67777893A15.80118985 15.80118985 0 0 1 845.78603204 360.40317254z m-311.67581975-1.06048236a15.80118985 15.80118985 0 0 1-15.48304476-12.72579062 180.28203192 180.28203192 0 0 1-3.60564079-34.67777894 15.90723847 15.90723847 0 0 1 15.90723847-15.90723769 15.90723847 15.90723847 0 0 1 15.90723771 15.80118985 159.60262244 159.60262244 0 0 0 2.86330275 28.5269797 15.69514199 15.69514199 0 0 1-12.40764553 18.66449339 16.22538279 16.22538279 0 0 1-3.18144785 0.53024079z" fill="#052D22" p-id="5273"></path></svg>