<?xml version="1.0" standalone="no"?><!DOCTYPE svg PUBLIC "-//W3C//DTD SVG 1.1//EN" "http://www.w3.org/Graphics/SVG/1.1/DTD/svg11.dtd"><svg t="1631266533761" class="icon" viewBox="0 0 1024 1024" version="1.1" xmlns="http://www.w3.org/2000/svg" p-id="7429" xmlns:xlink="http://www.w3.org/1999/xlink" width="200" height="200"><defs><style type="text/css"></style></defs><path d="M706.346667 545.28v178.346667c0 1.28 0 2.346667-0.213334 3.626666-1.706667 23.893333-19.84 43.093333-43.093333 46.293334-2.346667 0.426667-4.693333 0.64-7.04 0.64h-11.093333l-1.706667 14.08-10.88 83.84-4.053333 30.72-7.893334 60.586666c0 3.84-0.64 7.466667-1.493333 10.88-2.346667 8.32-7.466667 15.573333-14.293333 20.48-6.4 5.12-14.72 7.893333-23.68 7.893334h-125.44c-21.76 0-39.253333-17.493333-39.253334-39.466667l-5.546666-47.146667-4.693334-39.466666-10.666666-91.093334-1.28-11.52h-11.093334c-27.946667 0-50.56-22.613333-50.56-50.56v-178.346666h373.973334z" fill="#F2873D" p-id="7430"></path><path d="M532.053333 1002.666667h-34.773333l-86.613333-86.613334-4.693334-39.466666zM618.666667 974.08c-2.346667 8.32-7.466667 15.573333-14.293334 20.48L495.146667 885.333333l-99.84-100.053333-1.28-11.52h-10.24l-51.413334-51.413333v-34.773334l158.293334 158.293334 128 128.213333zM632.106667 871.893333l-4.053334 30.72-295.68-295.68v-34.773333zM663.04 773.333333c-2.346667 0.426667-4.693333 0.64-7.04 0.64h-11.093333l-1.706667 14.08-242.986667-242.773333h34.773334l228.053333 228.053333zM706.346667 692.266667v31.146666c0 1.28 0 2.346667-0.213334 3.626667l-181.76-181.76h34.773334l147.2 146.986667zM706.346667 556.586667v34.773333l-46.293334-46.08h34.773334z" fill="#FDAC6A" p-id="7431"></path><path d="M420.693333 545.28H332.373333v178.346667c0 27.946667 22.613333 50.56 50.56 50.56h11.093334l1.28 11.52 10.666666 91.093333 4.693334 39.466667 5.546666 47.146666c0 21.76 17.493333 39.466667 39.253334 39.466667h88.32c-21.76 0-39.253333-17.493333-39.253334-39.466667l-5.546666-47.146666-3.626667-30.506667-1.066667-8.96-3.626666-30.506667-7.04-60.586666-1.28-11.52c-17.066667 0-32.213333-7.04-43.52-17.92-11.093333-11.306667-17.92-26.666667-17.92-43.52V640c8.106667 17.92 26.026667 30.506667 46.933333 30.506667 28.373333 0 51.626667-23.253333 51.626667-51.626667V608h44.373333v83.626667c0 20.266667 16.64 36.906667 36.906667 36.906666s36.906667-16.64 36.906666-36.906666v-146.346667H420.693333z" fill="#CC5402" opacity=".5" p-id="7432"></path><path d="M779.306667 435.84c18.346667-37.973333 29.013333-80.426667 29.013333-125.44C808.32 150.613333 679.04 21.333333 519.466667 21.333333 359.68 21.333333 230.4 150.613333 230.4 310.4c0 42.453333 9.386667 82.346667 25.6 118.613333-23.893333 11.093333-40.533333 35.2-40.533333 63.36 0 38.613333 31.36 70.186667 70.186666 70.186667h0.426667c5.12 1.493333 10.453333 2.56 16.213333 2.56H416v24.533333c0 28.373333 23.253333 51.626667 51.626667 51.626667 28.373333 0 51.626667-23.253333 51.626666-51.626667v-24.533333h44.373334v97.066667c0 20.266667 16.64 36.906667 36.906666 36.906666s36.906667-16.64 36.906667-36.906666v-97.066667H736.426667c12.586667 0 24.32-3.84 33.92-10.666667 22.4-11.733333 37.973333-34.986667 37.973333-62.08 0-23.253333-11.52-43.733333-29.013333-56.533333z" fill="#F8E5BF" p-id="7433"></path><path d="M382.506667 564.906667c-16.426667-36.266667-45.866667-106.026667-45.866667-148.266667 0-159.573333 129.28-289.066667 289.066667-289.066667 52.48 0 101.546667 14.293333 144 38.613334C719.786667 79.786667 626.56 21.333333 519.466667 21.333333 359.68 21.333333 230.4 150.613333 230.4 310.4c0 42.453333 9.386667 82.346667 25.6 118.613333-23.893333 11.093333-40.533333 35.2-40.533333 63.36 0 38.613333 31.36 70.186667 70.186666 70.186667h0.426667c5.12 1.493333 10.453333 2.56 16.213333 2.56H330.666667c7.253333-13.013333 38.4 5.973333 51.84-0.213333z" fill="#FFFFFF" opacity=".3" p-id="7434"></path><path d="M625.706667 671.146667v17.706666c5.12-4.693333 8.746667-10.88 10.453333-17.706666h-10.453333z" fill="#FFFFFF" p-id="7435"></path><path d="M683.093333 180.053333c0 74.666667-40.746667 135.253333-190.506666 135.253334-74.666667 0-198.826667-34.773333-198.826667-109.44 0-99.626667 97.706667-161.066667 198.826667-161.066667 74.666667 0 190.506667 60.373333 190.506666 135.253333z" fill="#FFFFFF" opacity=".3" p-id="7436"></path><path d="M506.24 402.773333l-18.133333-17.706666c-0.853333-0.853333-0.853333-2.133333 0-2.986667l51.2-52.693333c0.853333-0.853333 2.133333-0.853333 2.986666 0l18.133334 17.706666c0.853333 0.853333 0.853333 2.133333 0 2.986667l-51.2 52.693333c-0.853333 0.853333-2.133333 0.853333-2.986667 0z" fill="#00ABFF" p-id="7437"></path><path d="M746.88 355.2l-25.173333-2.346667c-1.066667-0.213333-2.133333-1.066667-1.92-2.346666l6.826666-73.173334c0.213333-1.066667 1.066667-2.133333 2.346667-1.92l25.173333 2.346667c1.066667 0.213333 2.133333 1.066667 1.92 2.346667l-6.826666 73.173333c-0.213333 1.066667-1.28 1.92-2.346667 1.92z" fill="#B7E7F8" p-id="7438"></path><path d="M564.906667 255.146667l16.213333-19.413334c0.853333-0.853333 2.133333-1.066667 2.986667-0.213333l56.533333 46.933333c0.853333 0.853333 1.066667 2.133333 0.213333 2.986667l-16.213333 19.413333c-0.853333 0.853333-2.133333 1.066667-2.986667 0.213334l-56.533333-46.933334c-0.853333-0.64-1.066667-2.133333-0.213333-2.986666z" fill="#F33251" p-id="7439"></path><path d="M532.266667 80l23.893333 8.32c1.066667 0.426667 1.706667 1.706667 1.28 2.773333l-23.893333 69.546667c-0.426667 1.066667-1.706667 1.706667-2.773334 1.28L506.88 153.6c-1.066667-0.426667-1.706667-1.706667-1.28-2.773333l23.893333-69.546667c0.426667-1.066667 1.706667-1.706667 2.773334-1.28z" fill="#E06893" p-id="7440"></path><path d="M340.053333 177.066667l12.16-22.186667c0.64-1.066667 1.92-1.493333 2.986667-0.853333l64.426667 35.413333c1.066667 0.64 1.493333 1.92 0.853333 2.986667l-12.16 22.186666c-0.64 1.066667-1.92 1.493333-2.986667 0.853334l-64.426666-35.413334c-1.066667-0.64-1.28-1.92-0.853334-2.986666z" fill="#F7AF2C" p-id="7441"></path><path d="M310.826667 354.346667l3.413333-24.96c0.213333-1.066667 1.28-1.92 2.346667-1.92l63.36 8.746666c1.066667 0.213333 1.92 1.28 1.92 2.346667l-3.413334 24.96c-0.213333 1.066667-1.28 1.92-2.346666 1.92l-63.36-8.746667c-1.28 0-2.133333-1.066667-1.92-2.346666z" fill="#91DEAA" p-id="7442"></path></svg>