<?xml version="1.0" standalone="no"?><!DOCTYPE svg PUBLIC "-//W3C//DTD SVG 1.1//EN" "http://www.w3.org/Graphics/SVG/1.1/DTD/svg11.dtd"><svg t="1631266318441" class="icon" viewBox="0 0 1024 1024" version="1.1" xmlns="http://www.w3.org/2000/svg" p-id="4042" xmlns:xlink="http://www.w3.org/1999/xlink" width="200" height="200"><defs><style type="text/css"></style></defs><path d="M511.9 266c33.2 0 65.4 6.5 95.7 19.3 29.3 12.4 55.6 30.1 78.2 52.7s40.3 48.9 52.7 78.2c12.8 30.3 19.3 62.5 19.3 95.7s-6.5 65.4-19.3 95.7c-12.4 29.3-30.1 55.6-52.7 78.2s-48.9 40.3-78.2 52.7c-30.3 12.8-62.5 19.3-95.7 19.3s-65.4-6.5-95.7-19.3c-29.3-12.4-55.6-30.1-78.2-52.7s-40.3-48.9-52.7-78.2c-12.8-30.3-19.3-62.5-19.3-95.7s6.5-65.4 19.3-95.7c12.4-29.3 30.1-55.6 52.7-78.2s48.9-40.3 78.2-52.7c30.3-12.8 62.5-19.3 95.7-19.3m0-24c-149.1 0-270 120.9-270 270s120.9 270 270 270 270-120.9 270-270-120.8-270-270-270z" fill="#3F3949" p-id="4043"></path><path d="M959.8 652.9c6.7 24-15.4 46-39.4 39.4-79.1-21.7-137.2-94.1-137.2-180 0-86.7 59.1-159.5 139.2-180.5 23.7-6.2 45.2 15.6 38.9 39.3-10.4 38.8-26.4 90.2-26.4 141.3-0.1 51.8 14.5 103.3 24.9 140.5z" fill="#FFFFFF" p-id="4044"></path><path d="M930.5 330.7v24c2.3 0 4.6 1.2 6.1 3.2 1.1 1.4 2.2 3.8 1.4 7-1.3 4.7-2.6 9.5-4 14.7-10.4 37.8-23.2 84.8-23.2 132.8 0 54.1 14.5 106.4 25.2 144.6l0.7 2.4c0.7 2.5 0.3 4.8-1.3 6.9-1.6 2.1-3.9 3.3-6.4 3.3-0.8 0-1.5-0.1-2.3-0.3-33.7-9.2-64.1-29.6-85.6-57.4-22.2-28.7-33.9-63.1-33.9-99.4 0-73.9 49.9-138.6 121.3-157.3 0.7-0.2 1.4-0.3 2.1-0.3l-0.1-24.2m0 0c-2.7 0-5.4 0.3-8.2 1.1-80.1 21-139.2 93.9-139.2 180.5 0 86 58.1 158.3 137.2 180 2.9 0.8 5.8 1.2 8.7 1.2 20.3 0 36.6-19.5 30.8-40.6-10.3-37.2-25-88.7-25-140.6 0-51 16.1-102.5 26.4-141.3 5.6-20.9-10.5-40.3-30.7-40.3z" fill="#3F3949" p-id="4045"></path><path d="M64.2 652.9c-6.7 24 15.4 46 39.4 39.4 79.1-21.7 137.2-94.1 137.2-180 0-86.7-59.1-159.5-139.2-180.5-23.6-6.3-45.1 15.6-38.8 39.2 10.4 38.8 26.4 90.2 26.4 141.3 0 51.9-14.6 103.4-25 140.6z" fill="#FFFFFF" p-id="4046"></path><path d="M93.5 354.7c0.7 0 1.4 0.1 2.1 0.3 71.4 18.7 121.3 83.4 121.3 157.3 0 36.4-11.7 70.7-33.9 99.4-21.5 27.8-51.9 48.2-85.6 57.4-0.8 0.2-1.6 0.3-2.3 0.3-2.4 0-4.8-1.2-6.4-3.3-1.5-2-2-4.3-1.3-6.9l0.7-2.4c10.6-38.2 25.2-90.5 25.2-144.6 0-48-12.9-95-23.2-132.8-1.4-5.1-2.7-10-4-14.7-0.9-3.2 0.3-5.6 1.4-7 1.4-1.8 3.7-3 6-3m0-24c-20.2 0-36.3 19.5-30.7 40.4 10.4 38.8 26.4 90.2 26.4 141.3 0 51.9-14.6 103.4-25 140.6-5.8 21 10.5 40.5 30.8 40.5 2.8 0 5.7-0.4 8.7-1.2 79.1-21.7 137.2-94.1 137.2-180 0-86.7-59.1-159.5-139.2-180.5-2.8-0.8-5.6-1.1-8.2-1.1z" fill="#3F3949" p-id="4047"></path><path d="M954.9 604.6c8.6 23.6-12.2 47.5-36.8 42.2-77.9-16.8-135-70.7-135-134.6 0-64.3 57.7-118.4 136.4-134.9 24.7-5.2 45.4 18.6 36.8 42.3-9.9 27-21.6 59.9-21.6 92.6 0.1 33.2 10.7 66.2 20.2 92.4z" fill="#FFA1A1" p-id="4048"></path><path d="M926.4 400.7c3.8 0 6 2.7 6.6 3.5 1.5 2.2 1.8 4.6 0.9 7.2-9.7 26.6-23 63.1-23 100.8 0 36.2 10.9 71.1 21.6 100.5 1.2 3.2 0.1 5.7-0.9 7.3-0.6 0.8-2.7 3.5-6.4 3.5-0.6 0-1.2-0.1-1.9-0.2-33.8-7.3-63.9-22.7-84.9-43.3-20.3-19.9-31.1-43.4-31.1-67.8 0-51.1 48.2-96.9 117.3-111.4 0.5 0 1.2-0.1 1.8-0.1m0-24c-2.2 0-4.5 0.2-6.8 0.7-78.7 16.4-136.4 70.6-136.4 134.9 0 63.9 57 117.8 135 134.6 2.4 0.5 4.7 0.7 6.9 0.7 21.4 0 37.7-21.6 29.9-43-9.5-26.3-20.1-59.2-20.1-92.4 0-32.7 11.7-65.6 21.6-92.6 7.7-21.4-8.6-42.9-30.1-42.9z" fill="#3F3949" p-id="4049"></path><path d="M69.1 604.6c-8.6 23.6 12.2 47.5 36.8 42.2 77.9-16.8 135-70.7 135-134.6 0-64.3-57.7-118.4-136.4-134.9-24.7-5-45.5 18.7-36.9 42.4 9.9 27 21.6 59.9 21.6 92.6 0 33.1-10.6 66.1-20.1 92.3z" fill="#FFA1A1" p-id="4050"></path><path d="M97.6 400.7c0.6 0 1.2 0.1 1.9 0.2 69.1 14.4 117.3 60.2 117.3 111.4 0 24.4-10.7 47.9-31.1 67.8-21 20.6-51.2 36-85 43.3-0.6 0.1-1.3 0.2-1.9 0.2-3.7 0-5.8-2.7-6.4-3.5-1.1-1.5-2.1-4-0.9-7.3 10.7-29.4 21.6-64.4 21.6-100.5 0-37.8-13.3-74.2-23-100.8-0.9-2.6-0.6-5 0.9-7.2 0.6-0.9 2.8-3.6 6.6-3.6m0-24c-21.5 0-37.8 21.5-30 43 9.9 27 21.6 59.9 21.6 92.6 0 33.2-10.6 66.1-20.1 92.4-7.8 21.4 8.5 43 29.9 43 2.3 0 4.6-0.2 6.9-0.7 77.9-16.8 135-70.7 135-134.6 0-64.3-57.7-118.4-136.4-134.9-2.4-0.6-4.7-0.8-6.9-0.8z" fill="#3F3949" p-id="4051"></path><path d="M607.7 285.3c-24.6-10.4-50.4-16.6-77-18.6L266.6 530.8c2 26.6 8.2 52.4 18.6 77 2.5 5.9 5.2 11.7 8.2 17.3L625 293.5c-5.6-3-11.4-5.7-17.3-8.2z" fill="#FFC49C" p-id="4052"></path><path d="M738.6 416.3c-1.3-3.1-2.7-6.2-4.2-9.3L406.9 734.5l9.3 4.2c28.1 11.9 57.8 18.3 88.4 19.2l253.2-253.2c-0.9-30.7-7.3-60.4-19.2-88.4z" fill="#A4D6FF" p-id="4053"></path><path d="M560.1 753.3c16.3-3.2 32.2-8.1 47.6-14.6 29.3-12.4 55.6-30.1 78.2-52.7s40.3-48.9 52.7-78.2c6.5-15.4 11.4-31.3 14.6-47.6L560.1 753.3zM685.9 338.1c-9.2-9.2-19-17.6-29.4-25.1L312.9 656.6c7.6 10.4 15.9 20.2 25.1 29.4 11.3 11.3 23.4 21.3 36.5 30.1L716 374.5c-8.8-13-18.9-25.2-30.1-36.4zM416.2 286c-29.3 12.4-55.6 30.1-78.2 52.7s-40.3 48.9-52.7 78.2c-8.4 19.9-14.1 40.7-17 62l210-210c-21.4 3-42.2 8.7-62.1 17.1z" fill="#FFA1A1" p-id="4054"></path><path d="M511.9 266c-11.4 0-22.6 0.8-33.7 2.3l-210 210c-1.5 11.1-2.3 22.4-2.3 33.7 0 6.3 0.2 12.6 0.7 18.8l264.1-264.1c-6.2-0.5-12.5-0.7-18.8-0.7zM625 293.5L293.4 625.1c5.7 11 12.2 21.5 19.4 31.5L656.4 313c-9.9-7.3-20.4-13.8-31.4-19.5zM716 374.5L374.4 716.1c10.3 7 21.1 13.1 32.5 18.5L734.4 407c-5.3-11.3-11.5-22.2-18.4-32.5zM757.9 512c0-2.4 0-4.9-0.1-7.3L504.6 757.9c2.4 0.1 4.9 0.1 7.3 0.1 16.3 0 32.4-1.6 48.2-4.7l193.1-193.1c3.2-15.8 4.7-31.9 4.7-48.2z" fill="#FFF5F5" p-id="4055"></path><path d="M295 512c0-131 102.4-238.1 231.5-245.6-4.8-0.3-9.6-0.4-14.5-0.4-135.9 0-246 110.1-246 246s110.1 246 246 246c4.9 0 9.7-0.2 14.5-0.4C397.3 750.1 295 643 295 512z" fill="#FFFFFF" p-id="4056"></path><path d="M240.9 570c3.9 0 7-3.1 7-7V461c0-3.9-3.1-7-7-7s-7 3.1-7 7v102c0 3.9 3.2 7 7 7z" fill="#FFC49C" p-id="4057"></path><path d="M240.9 454c3.9 0 7 3.1 7 7v102c0 3.9-3.1 7-7 7s-7-3.1-7-7V461c0-3.9 3.2-7 7-7m0-24c-17.1 0-31 13.9-31 31v102c0 17.1 13.9 31 31 31s31-13.9 31-31V461c0-17.1-13.9-31-31-31z" fill="#3F3949" p-id="4058"></path><path d="M783.2 570c-3.9 0-7-3.1-7-7V461c0-3.9 3.1-7 7-7s7 3.1 7 7v102c0 3.9-3.2 7-7 7z" fill="#FFC49C" p-id="4059"></path><path d="M783.2 454c3.9 0 7 3.1 7 7v102c0 3.9-3.1 7-7 7s-7-3.1-7-7V461c0-3.9 3.1-7 7-7m0-24c-17.1 0-31 13.9-31 31v102c0 17.1 13.9 31 31 31s31-13.9 31-31V461c0-17.1-13.9-31-31-31z" fill="#3F3949" p-id="4060"></path></svg>